<svg width="41" height="43" viewBox="0 0 41 43" fill="none" xmlns="http://www.w3.org/2000/svg">
<g filter="url(#filter0_d_2_2478)">
<circle cx="20.5" cy="17.5" r="17.5" fill="white"/>
</g>
<path d="M29.1396 31.9484C29.1396 33.1975 28.4949 34.319 27.4149 34.9484L20.4265 39.0211C19.3381 39.6554 18.036 39.6597 16.9434 39.0328C15.8508 38.4058 15.1985 37.2799 15.1985 36.0211V27.8758C15.1985 26.6169 15.8508 25.4911 16.9434 24.8641C18.036 24.2372 19.3381 24.2415 20.4265 24.8758L27.4149 28.9485C28.4949 29.5779 29.1396 30.6993 29.1396 31.9484ZM17.5161 36.0211C17.5161 36.6259 17.9228 36.9246 18.0977 37.025C18.2726 37.1253 18.7358 37.3259 19.2588 37.0211L26.2471 32.9484C26.766 32.646 26.8221 32.1484 26.8221 31.9484C26.8221 31.7485 26.766 31.2509 26.2471 30.9485L19.2588 26.8758C18.7358 26.571 18.2726 26.7715 18.0977 26.8719C17.9228 26.9722 17.5161 27.2709 17.5161 27.8758V36.0211Z" fill="#FF0A6B"/>
<defs>
<filter id="filter0_d_2_2478" x="0.5" y="0" width="40" height="42.5" filterUnits="userSpaceOnUse" color-interpolation-filters="sRGB">
<feFlood flood-opacity="0" result="BackgroundImageFix"/>
<feColorMatrix in="SourceAlpha" type="matrix" values="0 0 0 0 0 0 0 0 0 0 0 0 0 0 0 0 0 0 127 0" result="hardAlpha"/>
<feOffset dy="5"/>
<feGaussianBlur stdDeviation="1.25"/>
<feComposite in2="hardAlpha" operator="out"/>
<feColorMatrix type="matrix" values="0 0 0 0 0 0 0 0 0 0 0 0 0 0 0 0 0 0 0.2 0"/>
<feBlend mode="normal" in2="BackgroundImageFix" result="effect1_dropShadow_2_2478"/>
<feBlend mode="normal" in="SourceGraphic" in2="effect1_dropShadow_2_2478" result="shape"/>
</filter>
</defs>
</svg>
