<svg width="60" height="65" viewBox="0 0 60 65" fill="none" xmlns="http://www.w3.org/2000/svg">
<path d="M60 35.1836C60 21.3601 50.5215 9.76215 37.681 6.38525C37.2713 10.2395 33.9871 13.2443 29.9965 13.2443C26.0059 13.2443 22.7287 10.2395 22.3119 6.38525C9.47852 9.75513 0 21.3531 0 35.1836C0 51.6538 13.4338 64.9999 29.9965 64.9999C46.5591 64.9999 59.9929 51.6468 59.9929 35.1836" fill="white"/>
<path d="M29.9963 10.4404C32.8756 10.4404 35.2173 8.10618 35.2173 5.22021C35.2173 2.33424 32.8827 0 29.9963 0C27.1099 0 24.7753 2.33424 24.7753 5.22021C24.7753 8.10618 27.1099 10.4404 29.9963 10.4404Z" fill="#231F20"/>
</svg>
