<svg width="41" height="45" viewBox="0 0 41 45" fill="none" xmlns="http://www.w3.org/2000/svg">
<circle cx="20.5" cy="20" r="20" fill="#FF0A6B"/>
<path d="M30.1145 36.2537C30.1145 37.6814 29.3776 38.9632 28.1432 39.6826L20.1558 44.3374C18.9119 45.0624 17.4237 45.0673 16.1748 44.3507C14.926 43.6342 14.1805 42.3474 14.1805 40.9086V31.5989C14.1805 30.1601 14.926 28.8733 16.1748 28.1567C17.4236 27.4401 18.9119 27.4451 20.1558 28.1701L28.1432 32.8249C29.3776 33.5443 30.1145 34.8261 30.1145 36.2537ZM16.8294 40.9086C16.8294 41.5999 17.2943 41.9413 17.4941 42.056C17.694 42.1707 18.2235 42.3999 18.8211 42.0515L26.8085 37.3967C27.4016 37.0511 27.4656 36.4823 27.4656 36.2537C27.4656 36.0252 27.4016 35.4564 26.8085 35.1108L18.8211 30.456C18.2235 30.1076 17.694 30.3368 17.4941 30.4515C17.2943 30.5662 16.8294 30.9076 16.8294 31.5989V40.9086Z" fill="white"/>
</svg>
