<svg width="10" height="10" viewBox="0 0 10 10" fill="none" xmlns="http://www.w3.org/2000/svg">
<path d="M4.64269 5.92638C4.48727 5.92638 4.33185 5.86709 4.21327 5.74851C3.97611 5.51135 3.97611 5.12683 4.21327 4.88967L8.96332 0.177902C9.20048 -0.0592614 9.585 -0.0592588 9.82217 0.177902C10.0593 0.415065 10.0593 0.799585 9.82217 1.03675L5.07212 5.74851C4.95354 5.86709 4.79812 5.92638 4.64269 5.92638Z" fill="#FAFAFA"/>
<path d="M9.51118 0C9.63868 0 9.76362 0.049938 9.85684 0.143157C9.98959 0.275917 10.0346 0.472984 9.97255 0.650186L6.81466 9.67273C6.74846 9.86186 6.57352 9.99143 6.3733 9.99959C6.17309 10.0078 5.98816 9.89288 5.90677 9.70977L4.17861 5.82139L0.290235 4.09322C0.107123 4.01184 -0.00775672 3.82692 0.000408396 3.6267C0.00857352 3.42648 0.138138 3.25154 0.327272 3.18534L9.34981 0.0274503C9.40258 0.00898075 9.45711 0 9.51118 0ZM6.29932 8.18631L8.71466 1.28534L1.81369 3.70068L4.74735 5.00453C4.85792 5.05368 4.94633 5.14208 4.99547 5.25265L6.29932 8.18631Z" fill="#FAFAFA"/>
</svg>
