<svg width="75" height="17" viewBox="0 0 75 17" fill="none" xmlns="http://www.w3.org/2000/svg">
<path d="M14.4375 8.5C14.4375 10.1875 14.1328 11.6458 13.5234 12.875C12.9141 14.1042 12.0781 15.0521 11.0156 15.7188C9.95313 16.3854 8.73958 16.7187 7.375 16.7187C6.01042 16.7187 4.79688 16.3854 3.73438 15.7188C2.67188 15.0521 1.83594 14.1042 1.22656 12.875C0.617188 11.6458 0.3125 10.1875 0.3125 8.5C0.3125 6.8125 0.617188 5.35417 1.22656 4.125C1.83594 2.89583 2.67188 1.94792 3.73438 1.28125C4.79688 0.614583 6.01042 0.281249 7.375 0.281249C8.73958 0.281249 9.95313 0.614583 11.0156 1.28125C12.0781 1.94792 12.9141 2.89583 13.5234 4.125C14.1328 5.35417 14.4375 6.8125 14.4375 8.5ZM12.5625 8.5C12.5625 7.11458 12.3307 5.94531 11.8672 4.99219C11.4089 4.03906 10.7865 3.31771 10 2.82812C9.21875 2.33854 8.34375 2.09375 7.375 2.09375C6.40625 2.09375 5.52865 2.33854 4.74219 2.82812C3.96094 3.31771 3.33854 4.03906 2.875 4.99219C2.41667 5.94531 2.1875 7.11458 2.1875 8.5C2.1875 9.88542 2.41667 11.0547 2.875 12.0078C3.33854 12.9609 3.96094 13.6823 4.74219 14.1719C5.52865 14.6615 6.40625 14.9062 7.375 14.9062C8.34375 14.9062 9.21875 14.6615 10 14.1719C10.7865 13.6823 11.4089 12.9609 11.8672 12.0078C12.3307 11.0547 12.5625 9.88542 12.5625 8.5ZM17.4753 16.5V0.5H22.8816C24.1316 0.5 25.1576 0.713541 25.9597 1.14062C26.7618 1.5625 27.3555 2.14323 27.7409 2.88281C28.1264 3.6224 28.3191 4.46354 28.3191 5.40625C28.3191 6.34896 28.1264 7.1849 27.7409 7.91406C27.3555 8.64323 26.7644 9.21615 25.9675 9.63281C25.1706 10.0443 24.1524 10.25 22.9128 10.25H18.5378V8.5H22.8503C23.7045 8.5 24.392 8.375 24.9128 8.125C25.4389 7.875 25.8191 7.52083 26.0534 7.0625C26.293 6.59896 26.4128 6.04687 26.4128 5.40625C26.4128 4.76562 26.293 4.20573 26.0534 3.72656C25.8139 3.2474 25.431 2.8776 24.905 2.61719C24.379 2.35156 23.6836 2.21875 22.8191 2.21875H19.4128V16.5H17.4753ZM25.0066 9.3125L28.9441 16.5H26.6941L22.8191 9.3125H25.0066ZM31.3276 16.5V0.5H36.9213C38.0359 0.5 38.9552 0.692708 39.6791 1.07813C40.4031 1.45833 40.9422 1.97135 41.2963 2.61719C41.6505 3.25781 41.8276 3.96875 41.8276 4.75C41.8276 5.4375 41.7052 6.00521 41.4604 6.45312C41.2208 6.90104 40.9031 7.25521 40.5073 7.51562C40.1166 7.77604 39.6922 7.96875 39.2338 8.09375V8.25C39.7234 8.28125 40.2156 8.45312 40.7104 8.76562C41.2052 9.07812 41.6192 9.52604 41.9526 10.1094C42.2859 10.6927 42.4526 11.4062 42.4526 12.25C42.4526 13.0521 42.2703 13.7734 41.9057 14.4141C41.5411 15.0547 40.9656 15.5625 40.1791 15.9375C39.3927 16.3125 38.3692 16.5 37.1088 16.5H31.3276ZM33.2651 14.7812H37.1088C38.3745 14.7812 39.2729 14.5365 39.8041 14.0469C40.3406 13.5521 40.6088 12.9531 40.6088 12.25C40.6088 11.7083 40.4708 11.2083 40.1948 10.75C39.9187 10.2865 39.5255 9.91667 39.0151 9.64062C38.5047 9.35937 37.9005 9.21875 37.2026 9.21875H33.2651V14.7812ZM33.2651 7.53125H36.8588C37.4422 7.53125 37.9682 7.41667 38.437 7.1875C38.9109 6.95833 39.2859 6.63542 39.562 6.21875C39.8432 5.80208 39.9838 5.3125 39.9838 4.75C39.9838 4.04687 39.739 3.45052 39.2495 2.96094C38.7599 2.46615 37.9838 2.21875 36.9213 2.21875H33.2651V7.53125ZM47.3537 0.5V16.5H45.4162V0.5H47.3537Z" fill="white"/>
<path d="M61.9547 4.5V6.0625H55.7359V4.5H61.9547ZM57.5484 1.625H59.3922V13.0625C59.3922 13.5833 59.4677 13.974 59.6188 14.2344C59.775 14.4896 59.9729 14.6615 60.2125 14.75C60.4573 14.8333 60.7151 14.875 60.9859 14.875C61.1891 14.875 61.3557 14.8646 61.4859 14.8437C61.6161 14.8177 61.7203 14.7969 61.7984 14.7812L62.1734 16.4375C62.0484 16.4844 61.874 16.5313 61.65 16.5781C61.426 16.6302 61.1422 16.6563 60.7984 16.6563C60.2776 16.6563 59.7672 16.5443 59.2672 16.3203C58.7724 16.0964 58.3609 15.7552 58.0328 15.2969C57.7099 14.8385 57.5484 14.2604 57.5484 13.5625V1.625ZM74.5406 4.5L70.1031 16.5H68.2281L63.7906 4.5H65.7906L69.1031 14.0625H69.2281L72.5406 4.5H74.5406Z" fill="#FF0A6B"/>
</svg>
