<svg width="112" height="50" viewBox="0 0 112 50" fill="none" xmlns="http://www.w3.org/2000/svg">
<path d="M45.9998 27.0452C45.9998 16.4032 38.733 7.47446 28.8886 4.87476C28.5746 7.84199 26.0566 10.1552 22.9972 10.1552C19.9378 10.1552 17.4252 7.84199 17.1058 4.87476C7.26683 7.46906 0 16.3978 0 27.0452C0 39.7249 10.2992 49.9994 22.9972 49.9994C35.6952 49.9994 45.9944 39.7195 45.9944 27.0452" fill="white"/>
<path d="M22.9972 7.97074C25.2011 7.97074 26.9934 6.18867 26.9934 3.98537C26.9934 1.78208 25.2065 0 22.9972 0C20.7879 0 19.001 1.78208 19.001 3.98537C19.001 6.18867 20.7879 7.97074 22.9972 7.97074Z" fill="#FF0A6B"/>
<path d="M67.2273 25.1818C67.2273 26.4091 67.0057 27.4697 66.5625 28.3636C66.1193 29.2576 65.5114 29.947 64.7386 30.4318C63.9659 30.9167 63.0833 31.1591 62.0909 31.1591C61.0985 31.1591 60.2159 30.9167 59.4432 30.4318C58.6705 29.947 58.0625 29.2576 57.6193 28.3636C57.1761 27.4697 56.9545 26.4091 56.9545 25.1818C56.9545 23.9545 57.1761 22.8939 57.6193 22C58.0625 21.1061 58.6705 20.4167 59.4432 19.9318C60.2159 19.447 61.0985 19.2045 62.0909 19.2045C63.0833 19.2045 63.9659 19.447 64.7386 19.9318C65.5114 20.4167 66.1193 21.1061 66.5625 22C67.0057 22.8939 67.2273 23.9545 67.2273 25.1818ZM65.8636 25.1818C65.8636 24.1742 65.6951 23.3239 65.358 22.6307C65.0246 21.9375 64.572 21.4129 64 21.0568C63.4318 20.7008 62.7955 20.5227 62.0909 20.5227C61.3864 20.5227 60.7481 20.7008 60.1761 21.0568C59.608 21.4129 59.1553 21.9375 58.8182 22.6307C58.4848 23.3239 58.3182 24.1742 58.3182 25.1818C58.3182 26.1894 58.4848 27.0398 58.8182 27.733C59.1553 28.4261 59.608 28.9508 60.1761 29.3068C60.7481 29.6629 61.3864 29.8409 62.0909 29.8409C62.7955 29.8409 63.4318 29.6629 64 29.3068C64.572 28.9508 65.0246 28.4261 65.358 27.733C65.6951 27.0398 65.8636 26.1894 65.8636 25.1818ZM69.4366 31V19.3636H73.3684C74.2775 19.3636 75.0237 19.5189 75.607 19.8295C76.1904 20.1364 76.6222 20.5587 76.9025 21.0966C77.1828 21.6345 77.323 22.2462 77.323 22.9318C77.323 23.6174 77.1828 24.2254 76.9025 24.7557C76.6222 25.286 76.1923 25.7027 75.6127 26.0057C75.0332 26.3049 74.2927 26.4545 73.3911 26.4545H70.2093V25.1818H73.3457C73.9669 25.1818 74.4669 25.0909 74.8457 24.9091C75.2283 24.7273 75.5048 24.4697 75.6752 24.1364C75.8495 23.7992 75.9366 23.3977 75.9366 22.9318C75.9366 22.4659 75.8495 22.0587 75.6752 21.7102C75.501 21.3617 75.2226 21.0928 74.84 20.9034C74.4574 20.7102 73.9517 20.6136 73.323 20.6136H70.8457V31H69.4366ZM74.9139 25.7727L77.7775 31H76.1411L73.323 25.7727H74.9139ZM79.511 31V19.3636H83.5791C84.3898 19.3636 85.0583 19.5038 85.5848 19.7841C86.1113 20.0606 86.5034 20.4337 86.761 20.9034C87.0185 21.3693 87.1473 21.8864 87.1473 22.4545C87.1473 22.9545 87.0583 23.3674 86.8803 23.6932C86.706 24.0189 86.475 24.2765 86.1871 24.4659C85.903 24.6553 85.5943 24.7955 85.261 24.8864V25C85.617 25.0227 85.975 25.1477 86.3348 25.375C86.6947 25.6023 86.9958 25.928 87.2382 26.3523C87.4807 26.7765 87.6019 27.2955 87.6019 27.9091C87.6019 28.4924 87.4693 29.017 87.2041 29.483C86.939 29.9489 86.5204 30.3182 85.9485 30.5909C85.3765 30.8636 84.6322 31 83.7155 31H79.511ZM80.9201 29.75H83.7155C84.636 29.75 85.2894 29.572 85.6757 29.2159C86.0659 28.8561 86.261 28.4205 86.261 27.9091C86.261 27.5152 86.1606 27.1515 85.9598 26.8182C85.7591 26.4811 85.4731 26.2121 85.1019 26.0114C84.7307 25.8068 84.2913 25.7045 83.7837 25.7045H80.9201V29.75ZM80.9201 24.4773H83.5337C83.9579 24.4773 84.3405 24.3939 84.6814 24.2273C85.0261 24.0606 85.2988 23.8258 85.4996 23.5227C85.7041 23.2197 85.8064 22.8636 85.8064 22.4545C85.8064 21.9432 85.6284 21.5095 85.2723 21.1534C84.9163 20.7936 84.3519 20.6136 83.5791 20.6136H80.9201V24.4773ZM91.1663 19.3636V31H89.7572V19.3636H91.1663Z" fill="white"/>
<path d="M101.785 22.2727V23.4091H97.2625V22.2727H101.785ZM98.5807 20.1818H99.9216V28.5C99.9216 28.8788 99.9765 29.1629 100.086 29.3523C100.2 29.5379 100.344 29.6629 100.518 29.7273C100.696 29.7879 100.884 29.8182 101.081 29.8182C101.228 29.8182 101.35 29.8106 101.444 29.7955C101.539 29.7765 101.615 29.7614 101.672 29.75L101.944 30.9545C101.853 30.9886 101.727 31.0227 101.564 31.0568C101.401 31.0947 101.194 31.1136 100.944 31.1136C100.566 31.1136 100.194 31.0322 99.8307 30.8693C99.4708 30.7064 99.1716 30.4583 98.933 30.125C98.6981 29.7917 98.5807 29.3712 98.5807 28.8636V20.1818ZM110.939 22.2727L107.711 31H106.348L103.12 22.2727H104.575L106.984 29.2273H107.075L109.484 22.2727H110.939Z" fill="#FF0A6B"/>
</svg>
