<svg width="136" height="50" viewBox="0 0 136 50" fill="none" xmlns="http://www.w3.org/2000/svg">
<path d="M69.3733 23H67.9642C67.8809 22.5947 67.7351 22.2386 67.5267 21.9318C67.3222 21.625 67.0722 21.3674 66.7767 21.1591C66.4851 20.947 66.1612 20.7879 65.8051 20.6818C65.4491 20.5758 65.0779 20.5227 64.6915 20.5227C63.9869 20.5227 63.3487 20.7008 62.7767 21.0568C62.2085 21.4129 61.7559 21.9375 61.4188 22.6307C61.0854 23.3239 60.9188 24.1742 60.9188 25.1818C60.9188 26.1894 61.0854 27.0398 61.4188 27.733C61.7559 28.4261 62.2085 28.9508 62.7767 29.3068C63.3487 29.6629 63.9869 29.8409 64.6915 29.8409C65.0779 29.8409 65.4491 29.7879 65.8051 29.6818C66.1612 29.5758 66.4851 29.4186 66.7767 29.2102C67.0722 28.9981 67.3222 28.7386 67.5267 28.4318C67.7351 28.1212 67.8809 27.7652 67.9642 27.3636H69.3733C69.2673 27.9583 69.0741 28.4905 68.7938 28.9602C68.5135 29.4299 68.165 29.8295 67.7483 30.1591C67.3316 30.4848 66.8638 30.733 66.3449 30.9034C65.8298 31.0739 65.2786 31.1591 64.6915 31.1591C63.6991 31.1591 62.8165 30.9167 62.0438 30.4318C61.271 29.947 60.6631 29.2576 60.2199 28.3636C59.7767 27.4697 59.5551 26.4091 59.5551 25.1818C59.5551 23.9545 59.7767 22.8939 60.2199 22C60.6631 21.1061 61.271 20.4167 62.0438 19.9318C62.8165 19.447 63.6991 19.2045 64.6915 19.2045C65.2786 19.2045 65.8298 19.2898 66.3449 19.4602C66.8638 19.6307 67.3316 19.8807 67.7483 20.2102C68.165 20.536 68.5135 20.9337 68.7938 21.4034C69.0741 21.8693 69.2673 22.4015 69.3733 23ZM81.3085 25.1818C81.3085 26.4091 81.0869 27.4697 80.6437 28.3636C80.2005 29.2576 79.5926 29.947 78.8198 30.4318C78.0471 30.9167 77.1645 31.1591 76.1721 31.1591C75.1797 31.1591 74.2971 30.9167 73.5244 30.4318C72.7517 29.947 72.1437 29.2576 71.7005 28.3636C71.2573 27.4697 71.0358 26.4091 71.0358 25.1818C71.0358 23.9545 71.2573 22.8939 71.7005 22C72.1437 21.1061 72.7517 20.4167 73.5244 19.9318C74.2971 19.447 75.1797 19.2045 76.1721 19.2045C77.1645 19.2045 78.0471 19.447 78.8198 19.9318C79.5926 20.4167 80.2005 21.1061 80.6437 22C81.0869 22.8939 81.3085 23.9545 81.3085 25.1818ZM79.9448 25.1818C79.9448 24.1742 79.7763 23.3239 79.4392 22.6307C79.1058 21.9375 78.6532 21.4129 78.0812 21.0568C77.513 20.7008 76.8767 20.5227 76.1721 20.5227C75.4676 20.5227 74.8293 20.7008 74.2573 21.0568C73.6892 21.4129 73.2365 21.9375 72.8994 22.6307C72.5661 23.3239 72.3994 24.1742 72.3994 25.1818C72.3994 26.1894 72.5661 27.0398 72.8994 27.733C73.2365 28.4261 73.6892 28.9508 74.2573 29.3068C74.8293 29.6629 75.4676 29.8409 76.1721 29.8409C76.8767 29.8409 77.513 29.6629 78.0812 29.3068C78.6532 28.9508 79.1058 28.4261 79.4392 27.733C79.7763 27.0398 79.9448 26.1894 79.9448 25.1818ZM83.5178 31V19.3636H84.9269V29.75H90.336V31H83.5178ZM99.9942 19.3636H101.403V27.0682C101.403 27.8636 101.216 28.5739 100.841 29.1989C100.47 29.8201 99.9449 30.3106 99.2669 30.6705C98.5889 31.0265 97.7934 31.2045 96.8805 31.2045C95.9677 31.2045 95.1722 31.0265 94.4942 30.6705C93.8161 30.3106 93.2896 29.8201 92.9146 29.1989C92.5434 28.5739 92.3578 27.8636 92.3578 27.0682V19.3636H93.7669V26.9545C93.7669 27.5227 93.8919 28.0284 94.1419 28.4716C94.3919 28.911 94.748 29.2576 95.2101 29.5114C95.676 29.7614 96.2328 29.8864 96.8805 29.8864C97.5283 29.8864 98.0851 29.7614 98.551 29.5114C99.0169 29.2576 99.373 28.911 99.6192 28.4716C99.8692 28.0284 99.9942 27.5227 99.9942 26.9545V19.3636ZM113.284 19.3636V31H111.921L105.58 21.8636H105.466V31H104.057V19.3636H105.421L111.784 28.5227H111.898V19.3636H113.284ZM116.421 31H114.944L119.217 19.3636H120.671L124.944 31H123.467L119.99 21.2045H119.899L116.421 31ZM116.967 26.4545H122.921V27.7045H116.967V26.4545ZM132.96 22.2727C132.892 21.697 132.615 21.25 132.131 20.9318C131.646 20.6136 131.051 20.4545 130.347 20.4545C129.831 20.4545 129.381 20.5379 128.994 20.7045C128.612 20.8712 128.312 21.1004 128.097 21.392C127.884 21.6837 127.778 22.0152 127.778 22.3864C127.778 22.697 127.852 22.964 128 23.1875C128.151 23.4072 128.345 23.5909 128.58 23.7386C128.814 23.8826 129.061 24.0019 129.318 24.0966C129.576 24.1875 129.812 24.2614 130.028 24.3182L131.21 24.6364C131.513 24.7159 131.85 24.8258 132.222 24.9659C132.597 25.1061 132.955 25.2973 133.295 25.5398C133.64 25.7784 133.924 26.0852 134.148 26.4602C134.371 26.8352 134.483 27.2955 134.483 27.8409C134.483 28.4697 134.318 29.0379 133.989 29.5455C133.663 30.053 133.186 30.4564 132.557 30.7557C131.932 31.0549 131.172 31.2045 130.278 31.2045C129.445 31.2045 128.723 31.0701 128.114 30.8011C127.508 30.5322 127.03 30.1572 126.682 29.6761C126.337 29.1951 126.142 28.6364 126.097 28H127.551C127.589 28.4394 127.737 28.803 127.994 29.0909C128.256 29.375 128.585 29.5871 128.983 29.7273C129.384 29.8636 129.816 29.9318 130.278 29.9318C130.816 29.9318 131.299 29.8447 131.727 29.6705C132.155 29.4924 132.494 29.2462 132.744 28.9318C132.994 28.6136 133.119 28.2424 133.119 27.8182C133.119 27.4318 133.011 27.1174 132.795 26.875C132.58 26.6326 132.295 26.4356 131.943 26.2841C131.591 26.1326 131.21 26 130.801 25.8864L129.369 25.4773C128.46 25.2159 127.74 24.8428 127.21 24.358C126.68 23.8731 126.415 23.2386 126.415 22.4545C126.415 21.803 126.591 21.2348 126.943 20.75C127.299 20.2614 127.776 19.8826 128.375 19.6136C128.977 19.3409 129.65 19.2045 130.392 19.2045C131.142 19.2045 131.809 19.339 132.392 19.608C132.975 19.8731 133.437 20.2367 133.778 20.6989C134.123 21.161 134.305 21.6856 134.324 22.2727H132.96Z" fill="#231F20"/>
<path d="M46.6004 27.0452C46.6004 16.4032 39.3336 7.47446 29.4892 4.87476C29.1752 7.84199 26.6572 10.1552 23.5978 10.1552C20.5384 10.1552 18.0258 7.84199 17.7063 4.87476C7.86742 7.46906 0.600586 16.3978 0.600586 27.0452C0.600586 39.7249 10.8998 49.9994 23.5978 49.9994C36.2958 49.9994 46.595 39.7195 46.595 27.0452" fill="#231F20"/>
<path d="M23.5978 7.97074C25.8017 7.97074 27.594 6.18867 27.594 3.98537C27.594 1.78208 25.8071 0 23.5978 0C21.3885 0 19.6016 1.78208 19.6016 3.98537C19.6016 6.18867 21.3885 7.97074 23.5978 7.97074Z" fill="#FF0A6B"/>
</svg>
