<svg width="180" height="71" viewBox="0 0 180 71" fill="none" xmlns="http://www.w3.org/2000/svg">
<path d="M28.9912 17.8715C31.7696 17.8715 34.0291 15.6188 34.0291 12.8337C34.0291 10.0485 31.7764 7.79578 28.9912 7.79578C26.2061 7.79578 23.9534 10.0485 23.9534 12.8337C23.9534 15.6188 26.2061 17.8715 28.9912 17.8715Z" fill="#FF0A6B"/>
<path d="M98.0813 35.4658H98.5182V13.2886C95.4941 13.7327 92.6202 14.6482 89.9715 15.9463C86.6402 17.3606 85.1316 18.9115 85.1316 18.9115V14.8122H62.3246V68.964H85.1316V35.4795H98.0745V35.4658L98.0813 35.4658ZM179.629 14.8327H157.737V68.964H179.629V14.8395V14.8327Z" fill="#231F20"/>
</svg>
