<svg width="21" height="15" viewBox="0 0 21 15" fill="none" xmlns="http://www.w3.org/2000/svg">
<path d="M19 3H2C1.17157 3 0.5 2.32843 0.5 1.5C0.5 0.67157 1.17157 0 2 0H19C19.8284 0 20.5 0.67157 20.5 1.5C20.5 2.32843 19.8284 3 19 3Z" fill="#231F20"/>
<path d="M19 9H6C5.17157 9 4.5 8.32843 4.5 7.5C4.5 6.67157 5.17157 6 6 6H19C19.8284 6 20.5 6.67157 20.5 7.5C20.5 8.32843 19.8284 9 19 9Z" fill="#231F20"/>
<path d="M19 15H11C10.1716 15 9.5 14.3284 9.5 13.5C9.5 12.6716 10.1716 12 11 12H19C19.8284 12 20.5 12.6716 20.5 13.5C20.5 14.3284 19.8284 15 19 15Z" fill="#231F20"/>
</svg>
