<svg width="44" height="45" viewBox="0 0 44 45" fill="none" xmlns="http://www.w3.org/2000/svg">
<path d="M22.0002 43.75C10.2642 43.75 0.750244 34.236 0.750244 22.5C0.750244 10.7639 10.2642 1.25 22.0002 1.25C33.7363 1.25 43.2502 10.7639 43.2502 22.5C43.2502 34.236 33.7363 43.75 22.0002 43.75Z" stroke="#FF0A6B" stroke-width="1.5"/>
<path d="M18.0002 14.5H26.0002C28.2094 14.5 30.0002 16.2909 30.0002 18.5V26.5C30.0002 28.7091 28.2094 30.5 26.0002 30.5H18.0002C15.7911 30.5 14.0002 28.7091 14.0002 26.5L14.0002 18.5C14.0002 16.2909 15.7911 14.5 18.0002 14.5L18.0002 14.5Z" stroke="#FF0A6B" stroke-width="1.5" stroke-linecap="round" stroke-linejoin="round"/>
<path d="M25.4014 21.9676C25.6169 23.4206 24.8763 24.848 23.5642 25.5084C22.2521 26.1688 20.6644 25.9133 19.6258 24.8747C18.5871 23.836 18.3316 22.2483 18.992 20.9363C19.6524 19.6242 21.0798 18.8835 22.5328 19.099C24.0165 19.319 25.1814 20.484 25.4014 21.9676Z" stroke="#FF0A6B" stroke-width="1.5" stroke-linecap="round" stroke-linejoin="round"/>
</svg>
