<svg width="44" height="45" viewBox="0 0 44 45" fill="none" xmlns="http://www.w3.org/2000/svg">
<path d="M21.9995 43.75C10.2635 43.75 0.749512 34.236 0.749512 22.5C0.749512 10.7639 10.2635 1.25 21.9995 1.25C33.7356 1.25 43.2495 10.7639 43.2495 22.5C43.2495 34.236 33.7356 43.75 21.9995 43.75Z" stroke="#FF0A6B" stroke-width="1.5"/>
<path d="M32.7376 16.848C32.5178 15.9107 31.8451 15.1705 30.974 14.9075C29.4105 14.5 23.1562 14.5 23.1562 14.5C23.1562 14.5 16.902 14.5 15.3385 14.9463C14.4674 15.2093 13.7947 15.9495 13.5749 16.8868C13.2888 18.5804 13.1488 20.2985 13.1568 22.0194C13.1466 23.7533 13.2866 25.4844 13.5749 27.1908C13.8171 28.0982 14.4858 28.8047 15.3385 29.0537C16.902 29.5 23.1562 29.5 23.1562 29.5C23.1562 29.5 29.4105 29.5 30.974 29.0537C31.8451 28.7907 32.5178 28.0505 32.7376 27.1132C33.0215 25.4323 33.1615 23.7274 33.1557 22.0194C33.1659 20.2855 33.0259 18.5544 32.7376 16.848L32.7376 16.848Z" stroke="#FF0A6B" stroke-width="1.5" stroke-linecap="round" stroke-linejoin="round"/>
<path d="M21.1216 24.9817L26.3288 22.0204L21.1216 19.0591V24.9817Z" stroke="#FF0A6B" stroke-width="1.5" stroke-linecap="round" stroke-linejoin="round"/>
</svg>
