<svg width="44" height="45" viewBox="0 0 44 45" fill="none" xmlns="http://www.w3.org/2000/svg">
<path d="M21.9998 43.75C10.2637 43.75 0.749756 34.236 0.749756 22.5C0.749756 10.7639 10.2637 1.25 21.9998 1.25C33.7358 1.25 43.2498 10.7639 43.2498 22.5C43.2498 34.236 33.7358 43.75 21.9998 43.75Z" stroke="#FF0A6B" stroke-width="1.5"/>
<path d="M21.7627 12.6541C22.8393 12.6377 23.9078 12.6459 24.9762 12.6377C25.0419 13.8952 25.494 15.1773 26.4145 16.0649C27.335 16.9772 28.6335 17.3963 29.8992 17.536V20.8482C28.7157 20.8071 27.524 20.5605 26.4473 20.051C25.9789 19.8373 25.5433 19.5661 25.1159 19.2866C25.1077 21.6865 25.1241 24.0864 25.0995 26.478C25.0337 27.6286 24.6557 28.771 23.9899 29.7162C22.9133 31.2942 21.0476 32.3215 19.1327 32.3544C17.9574 32.4201 16.7821 32.0996 15.7795 31.5078C14.1193 30.5298 12.9522 28.7381 12.7796 26.815C12.7632 26.404 12.755 25.9931 12.7714 25.5904C12.9193 24.0288 13.6919 22.533 14.8918 21.5139C16.2561 20.3304 18.1629 19.7633 19.9463 20.1003C19.9628 21.3166 19.9135 22.533 19.9135 23.7494C19.0998 23.4864 18.1464 23.5604 17.4314 24.0535C16.9136 24.3904 16.5191 24.9082 16.3137 25.4918C16.1411 25.9109 16.1904 26.3712 16.1986 26.815C16.3959 28.1628 17.6944 29.297 19.0752 29.1737C19.9957 29.1655 20.8751 28.6313 21.3517 27.8505C21.5079 27.5793 21.6805 27.2999 21.6887 26.9793C21.7709 25.5082 21.738 24.0453 21.7462 22.5741C21.7545 19.262 21.738 15.9581 21.7627 12.6541L21.7627 12.6541Z" stroke="#FF0A6B" stroke-width="1.5" stroke-linecap="round" stroke-linejoin="round"/>
</svg>
